Results
version=1
nRows=31
nColumns=17
inDegrees=yes
endheader
time	/jointset/r_shoulder/r_shoulder_elev/value	/jointset/r_shoulder/r_shoulder_elev/speed	/jointset/r_elbow/r_elbow_flex/value	/jointset/r_elbow/r_elbow_flex/speed	/forceset/TRIlong/activation	/forceset/TRIlong/fiber_length	/forceset/TRIlat/activation	/forceset/TRIlat/fiber_length	/forceset/TRImed/activation	/forceset/TRImed/fiber_length	/forceset/BIClong/activation	/forceset/BIClong/fiber_length	/forceset/BICshort/activation	/forceset/BICshort/fiber_length	/forceset/BRA/activation	/forceset/BRA/fiber_length
      0.00000000	      0.00000000	      0.00000000	     70.00000000	      0.00000000	      0.05000000	      0.10000000	      0.05000000	      0.10000000	      0.05000000	      0.10000000	      0.05000000	      0.10000000	      0.05000000	      0.10000000	      0.05000000	      0.10000000
      0.00001420	     -0.00000876	     -1.16975263	     69.99999609	     -0.45252441	      0.04998979	      0.12090750	      0.04998979	      0.09999535	      0.04998979	      0.09999535	      0.04998979	      0.10210815	      0.04998979	      0.10303643	      0.04998979	      0.09998446
      0.00002840	     -0.00003176	     -2.02558141	     69.99998903	     -0.49369353	      0.04997959	      0.13408775	      0.04997959	      0.09999071	      0.04997959	      0.09999071	      0.04997959	      0.10387467	      0.04997959	      0.10526208	      0.04997959	      0.09996893
      0.00005019	     -0.00008655	     -2.93600083	     69.99998120	     -0.17172435	      0.04996394	      0.14662585	      0.04996394	      0.09998358	      0.04996394	      0.09998358	      0.04996394	      0.10605515	      0.04996394	      0.10761011	      0.04996394	      0.09994515
      0.00007933	     -0.00018394	     -3.68053138	     69.99998608	      0.52775293	      0.04994302	      0.15534199	      0.04994302	      0.09997405	      0.04994302	      0.09997405	      0.04994302	      0.10820928	      0.04994302	      0.10948398	      0.04994302	      0.09991344
      0.00010847	     -0.00029811	     -4.11999232	     70.00001195	      1.23467028	      0.04992211	      0.15932306	      0.04992211	      0.09996452	      0.04992211	      0.09996452	      0.04992211	      0.10973626	      0.04992211	      0.11052673	      0.04992211	      0.09988181
      0.00013761	     -0.00042245	     -4.39440969	     70.00005690	      1.82895688	      0.04990121	      0.16108912	      0.04990121	      0.09995498	      0.04990121	      0.09995498	      0.04990121	      0.11082182	      0.04990121	      0.11111208	      0.04990121	      0.09985026
      0.00017976	     -0.00061334	     -4.64321724	     70.00014839	      2.47293487	      0.04987099	      0.16204407	      0.04987099	      0.09994120	      0.04987099	      0.09994120	      0.04987099	      0.11186387	      0.04987099	      0.11158170	      0.04987099	      0.09980479
      0.00022191	     -0.00081270	     -4.80649993	     70.00026249	      2.91264935	      0.04984079	      0.16236972	      0.04984079	      0.09992741	      0.04984079	      0.09992741	      0.04984079	      0.11250425	      0.04984079	      0.11186219	      0.04984079	      0.09975949
      0.00027282	     -0.00106125	     -4.95115142	     70.00042059	      3.27622364	      0.04980435	      0.16254095	      0.04980435	      0.09991076	      0.04980435	      0.09991076	      0.04980435	      0.11299412	      0.04980435	      0.11207988	      0.04980435	      0.09970502
      0.00034366	     -0.00141778	     -5.10717109	     70.00066588	      3.62569374	      0.04975368	      0.16263913	      0.04975368	      0.09988760	      0.04975368	      0.09988760	      0.04975368	      0.11342828	      0.04975368	      0.11226717	      0.04975368	      0.09962965
      0.00044305	     -0.00193439	     -5.28323614	     70.00104385	      3.95845383	      0.04968270	      0.16268472	      0.04968270	      0.09985511	      0.04968270	      0.09985511	      0.04968270	      0.11379909	      0.04968270	      0.11241444	      0.04968270	      0.09952476
      0.00058575	     -0.00270386	     -5.49549046	     70.00163316	      4.27935723	      0.04958099	      0.16270737	      0.04958099	      0.09980846	      0.04958099	      0.09980846	      0.04958099	      0.11409931	      0.04958099	      0.11251665	      0.04958099	      0.09937581
      0.00090225	     -0.00450872	     -5.90015734	     70.00306550	      4.73610473	      0.04935623	      0.16273473	      0.04935623	      0.09970505	      0.04935623	      0.09970505	      0.04935623	      0.11437938	      0.04935623	      0.11259281	      0.04935623	      0.09905224
      0.00121875	     -0.00643528	     -6.27054181	     70.00461903	      5.06936697	      0.04913263	      0.16275274	      0.04913263	      0.09960171	      0.04913263	      0.09960171	      0.04913263	      0.11447391	      0.04913263	      0.11263092	      0.04913263	      0.09873762
      0.00168561	     -0.00948499	     -6.78994164	     70.00708371	      5.47643418	      0.04880488	      0.16277226	      0.04880488	      0.09944937	      0.04880488	      0.09944937	      0.04880488	      0.11453857	      0.04880488	      0.11267072	      0.04880488	      0.09828886
      0.00237383	     -0.01441092	     -7.51880756	     70.01102836	      5.96883116	      0.04832621	      0.16279328	      0.04832621	      0.09922505	      0.04832621	      0.09922505	      0.04832621	      0.11460107	      0.04832621	      0.11271415	      0.04832621	      0.09765814
      0.00351965	     -0.02368924	     -8.66394611	     70.01824494	      6.59207165	      0.04754097	      0.16281787	      0.04754097	      0.09885219	      0.04754097	      0.09885219	      0.04754097	      0.11467561	      0.04754097	      0.11276785	      0.04754097	      0.09668051
      0.00522429	     -0.03982959	    -10.25323995	     70.03004080	      7.19053677	      0.04639917	      0.16284220	      0.04639917	      0.09829888	      0.04639917	      0.09829888	      0.04639917	      0.11475823	      0.04639917	      0.11282709	      0.04639917	      0.09536820
      0.00612923	     -0.04947223	    -11.05322370	     70.03664042	      7.38207586	      0.04580555	      0.16285160	      0.04580555	      0.09800582	      0.04580555	      0.09800582	      0.04580555	      0.11479486	      0.04580555	      0.11285284	      0.04580555	      0.09473027
      0.00787929	     -0.07008604	    -12.47182651	     70.04962543	      7.35403805	      0.04468154	      0.16286523	      0.04468154	      0.09766855	      0.04468154	      0.09744035	      0.04468154	      0.11485725	      0.04468154	      0.11289566	      0.04468154	      0.09359424
      0.00962935	     -0.09302985	    -13.72463107	     70.06208322	      6.80799092	      0.04358829	      0.16287446	      0.04358829	      0.09751619	      0.04358829	      0.09687654	      0.04358829	      0.11491225	      0.04358829	      0.11293221	      0.04358829	      0.09256877
      0.01243222	     -0.13401666	    -15.47633384	     70.07903918	      5.15452192	      0.04189894	      0.16288247	      0.04189894	      0.09739629	      0.04189894	      0.09597689	      0.04189894	      0.11499123	      0.04189894	      0.11298271	      0.04189894	      0.09111622
      0.01523509	     -0.17957471	    -16.99984412	     70.09035790	      2.83130841	      0.04028207	      0.16288357	      0.04028207	      0.09734207	      0.04028207	      0.09508119	      0.04028207	      0.11506419	      0.04028207	      0.11302766	      0.04028207	      0.08985555
      0.01971671	     -0.26062555	    -19.11690385	     70.09307227	     -1.76409803	      0.03783839	      0.16286711	      0.03783839	      0.09731268	      0.03783839	      0.09365681	      0.03783839	      0.11517731	      0.03783839	      0.11309579	      0.03783839	      0.08815673
      0.02105347	     -0.28656820	    -19.69362340	     70.08970823	     -3.27766373	      0.03714151	      0.16285831	      0.03714151	      0.09731074	      0.03714151	      0.09323373	      0.03714151	      0.11521153	      0.03714151	      0.11311638	      0.03714151	      0.08771359
      0.02193584	     -0.30410901	    -20.06338973	     70.08636503	     -4.30338270	      0.03668926	      0.16285166	      0.03668926	      0.09731043	      0.03668926	      0.09295489	      0.03668926	      0.11523445	      0.03668926	      0.11313023	      0.03668926	      0.08743527
      0.02277405	     -0.32106731	    -20.39486497	     70.08233154	     -5.33690339	      0.03626525	      0.16284474	      0.03626525	      0.09731057	      0.03626525	      0.09276349	      0.03626525	      0.11525652	      0.03626525	      0.11314363	      0.03626525	      0.08718084
      0.02361225	     -0.33829087	    -20.69711870	     70.07739244	     -6.46144344	      0.03584661	      0.16283725	      0.03584661	      0.09731094	      0.03584661	      0.09265393	      0.03584661	      0.11527894	      0.03584661	      0.11315732	      0.03584661	      0.08693572
      0.02606125	     -0.38994372	    -21.45986176	     70.05719516	    -10.10892857	      0.03465353	      0.16281216	      0.03465353	      0.09731303	      0.03465353	      0.09248952	      0.03465353	      0.11534696	      0.03465353	      0.11319947	      0.03465353	      0.08626978
      0.02851025	     -0.44330465	    -22.10210014	     70.02760847	    -14.09497024	      0.03350376	      0.16278233	      0.03350376	      0.09731590	      0.03350376	      0.09241323	      0.03350376	      0.11541978	      0.03350376	      0.11324587	      0.03350376	      0.08567070
